HIERARCHY
ROOT Hips
{
	OFFSET -0.001795 -0.223333 0.028219
	CHANNELS 6 Xposition Yposition Zposition Zrotation Yrotation Xrotation 
	JOINT LeftUpLeg
	{
		OFFSET 0.069520 -0.091406 -0.006815
		CHANNELS 3 Zrotation Yrotation Xrotation
		JOINT LeftLeg
		{
			OFFSET 0.034277 -0.375199 -0.004496
			CHANNELS 3 Zrotation Yrotation Xrotation
			JOINT LeftFoot
			{
				OFFSET -0.013596 -0.397961 -0.043693
				CHANNELS 3 Zrotation Yrotation Xrotation
				JOINT LeftToe
				{
					OFFSET 0.026358 -0.055791 0.119288
					CHANNELS 3 Zrotation Yrotation Xrotation
					End Site
					{
						OFFSET 0.000000 0.000000 0.000000
					}
				}
			}
		}
	}
	JOINT RightUpLeg
	{
		OFFSET -0.067670 -0.090522 -0.004320
		CHANNELS 3 Zrotation Yrotation Xrotation
		JOINT RightLeg
		{
			OFFSET -0.038290 -0.382569 -0.008850
			CHANNELS 3 Zrotation Yrotation Xrotation
			JOINT RightFoot
			{
				OFFSET 0.015774 -0.398415 -0.042312
				CHANNELS 3 Zrotation Yrotation Xrotation
				JOINT RightToe
				{
					OFFSET -0.025372 -0.048144 0.123348
					CHANNELS 3 Zrotation Yrotation Xrotation
					End Site
					{
						OFFSET 0.000000 0.000000 0.000000
					}
				}
			}
		}
	}
	JOINT Spine
	{
		OFFSET -0.002533 0.108963 -0.026696
		CHANNELS 3 Zrotation Yrotation Xrotation
		JOINT Spine1
		{
			OFFSET 0.005487 0.135180 0.001092
			CHANNELS 3 Zrotation Yrotation Xrotation
			JOINT Spine2
			{
				OFFSET 0.001457 0.052922 0.025425
				CHANNELS 3 Zrotation Yrotation Xrotation
				JOINT Neck
				{
					OFFSET -0.002778 0.213870 -0.042857
					CHANNELS 3 Zrotation Yrotation Xrotation
					JOINT Head
					{
						OFFSET 0.005152 0.064970 0.051349
						CHANNELS 3 Zrotation Yrotation Xrotation
						End Site
						{
							OFFSET 0.000000 0.000000 0.000000
						}
					}
				}
				JOINT LeftShoulder
				{
					OFFSET 0.078845 0.121749 -0.034090
					CHANNELS 3 Zrotation Yrotation Xrotation
					JOINT LeftArm
					{
						OFFSET 0.090977 0.030469 -0.008868
						CHANNELS 3 Zrotation Yrotation Xrotation
						JOINT LeftForeArm
						{
							OFFSET 0.259612 -0.012772 -0.027456
							CHANNELS 3 Zrotation Yrotation Xrotation
							JOINT LeftHand
							{
								OFFSET 0.249234 0.008986 -0.001171
								CHANNELS 3 Zrotation Yrotation Xrotation
								End Site
								{
									OFFSET 0.000000 0.000000 0.000000
								}
							}
						}
					}
				}
				JOINT RightShoulder
				{
					OFFSET -0.081759 0.118833 -0.038615
					CHANNELS 3 Zrotation Yrotation Xrotation
					JOINT RightArm
					{
						OFFSET -0.096012 0.032551 -0.009143
						CHANNELS 3 Zrotation Yrotation Xrotation
						JOINT RightForeArm
						{
							OFFSET -0.253742 -0.013329 -0.021401
							CHANNELS 3 Zrotation Yrotation Xrotation
							JOINT RightHand
							{
								OFFSET -0.255298 0.007772 -0.005559
								CHANNELS 3 Zrotation Yrotation Xrotation
								End Site
								{
									OFFSET 0.000000 0.000000 0.000000
								}
							}
						}
					}
				}
			}
		}
	}
}
MOTION
Frames: 10
Frame Time: 0.050000
0.000000 0.955564 0.000000 0.955398 -2.906268 -3.045947 -1.531236 0.331833 3.052319 -0.852820 0.091250 0.333393 -5.219183 -4.664483 11.630168 0.000000 0.000000 0.000000 0.792723 -0.295521 2.711158 -1.169656 -0.400114 -11.125139 -5.177577 -15.792691 18.690772 0.000000 0.000000 0.000000 -0.472721 -0.091157 2.488347 -2.059233 1.015101 2.739960 1.010843 3.029921 4.428038 -3.588119 3.297183 -10.873338 0.000000 0.000000 0.000000 -26.478302 -8.498100 2.151710 -45.366534 -7.743103 -2.444621 -8.677021 -23.326999 2.601268 0.000000 0.000000 0.000000 21.795356 11.131990 4.693302 53.501970 3.858573 -3.621333 7.702882 26.083637 2.554597 0.000000 0.000000 0.000000 
0.000563 0.954494 0.001500 0.893534 -2.406093 -2.619986 -1.199925 0.363885 3.439408 -1.319179 0.175632 -1.039308 -5.528593 -5.140841 11.606285 0.000000 0.000000 0.000000 0.476080 -0.341046 3.283017 -0.569739 -0.469551 -12.727538 -5.346410 -16.023939 19.086040 0.000000 0.000000 0.000000 -0.309599 -0.046672 1.216176 -2.078627 1.022916 3.473633 0.705453 3.211308 4.545817 -5.459366 4.592901 -13.383710 0.000000 0.000000 0.000000 -25.964721 -8.560515 2.022425 -46.191457 -8.508977 -2.155973 -8.926521 -23.635061 2.670297 0.000000 0.000000 0.000000 21.828961 10.988342 4.791102 54.299659 3.584696 -3.842027 7.709930 27.040101 2.695954 0.000000 0.000000 0.000000 
0.000991 0.954308 0.002611 1.025236 -2.528086 -2.090208 -1.554020 0.253071 2.297528 -1.052508 0.120411 0.067703 -5.329043 -4.951009 11.333996 0.000000 0.000000 0.000000 0.070387 -0.231893 2.367218 -0.149840 -0.440544 -12.036835 -5.386421 -16.064325 18.705569 0.000000 0.000000 0.000000 0.198374 -0.028761 0.658183 -2.564286 1.259655 1.925762 0.544871 3.022680 5.611922 -6.210861 5.077517 -13.525742 0.000000 0.000000 0.000000 -24.943068 -8.440210 2.128468 -46.649537 -8.891310 -2.169062 -10.538097 -21.984802 2.806835 0.000000 0.000000 0.000000 22.781742 11.492552 5.095749 53.442666 2.940393 -4.153688 7.925068 26.871343 2.717251 0.000000 0.000000 0.000000 
0.001195 0.953556 0.003735 1.329050 -2.153665 -2.377708 -1.682604 0.298046 2.689637 -1.384311 0.159616 0.007420 -5.528363 -5.288380 11.257069 0.000000 0.000000 0.000000 -0.214260 -0.252103 2.700529 -0.295394 -0.439980 -11.903076 -5.633926 -16.373996 18.381162 0.000000 0.000000 0.000000 -0.351784 0.000882 -0.028427 -2.636908 1.312261 3.573492 0.822376 2.462426 4.721788 -7.622494 5.912812 -13.027150 0.000000 0.000000 0.000000 -25.266519 -8.434286 2.223715 -46.549569 -9.415496 -1.928911 -10.797913 -21.553898 2.805929 0.000000 0.000000 0.000000 22.779540 12.033007 5.235438 53.277488 2.594030 -4.167505 7.831683 26.996103 2.676438 0.000000 0.000000 0.000000 
0.001397 0.953466 0.004715 1.440689 -2.426491 -2.722251 -2.199918 0.295327 2.558338 -0.766388 0.061756 1.034321 -5.263229 -5.019513 10.947186 0.000000 0.000000 0.000000 -0.375917 -0.256052 2.833865 -0.242176 -0.418901 -11.410270 -5.538438 -16.225156 18.001923 0.000000 0.000000 0.000000 -0.064558 -0.006446 0.145755 -2.994373 1.502837 3.411490 0.830074 2.405520 4.621956 -7.940327 6.113503 -12.512308 0.000000 0.000000 0.000000 -25.079391 -8.760621 2.494923 -46.646437 -8.855279 -2.159202 -11.908963 -21.670458 3.038877 0.000000 0.000000 0.000000 23.075004 11.483846 4.842775 52.677220 2.311140 -4.218979 8.695680 27.103326 2.869431 0.000000 0.000000 0.000000 
0.001555 0.953137 0.005492 1.444277 -2.095242 -2.932048 -2.084960 0.299219 2.627225 -0.950055 0.075522 1.382515 -5.401154 -5.287081 10.806729 0.000000 0.000000 0.000000 -0.513738 -0.267992 3.014722 -0.049305 -0.414152 -11.164216 -5.739352 -16.482370 17.817455 0.000000 0.000000 0.000000 -0.145253 -0.013478 0.324124 -2.803170 1.394814 3.067011 0.929917 2.135887 4.891487 -8.748620 6.622411 -12.824411 0.000000 0.000000 0.000000 -25.252184 -8.727725 2.528699 -46.631156 -8.923137 -2.173969 -12.773301 -21.669679 3.210690 0.000000 0.000000 0.000000 22.954296 11.822781 5.005966 52.724318 2.358407 -4.221293 8.386822 26.501098 2.725875 0.000000 0.000000 0.000000 
0.001742 0.952960 0.005872 1.455696 -2.200660 -3.129173 -2.178094 0.301223 2.632919 -0.849431 0.052254 1.808958 -5.299831 -5.201359 10.650355 0.000000 0.000000 0.000000 -0.676809 -0.240414 2.797324 0.197705 -0.388336 -10.361504 -5.755856 -16.486798 17.406752 0.000000 0.000000 0.000000 -0.221648 -0.018987 0.464545 -2.564880 1.270475 2.827254 0.722558 2.044216 4.929097 -8.623199 6.546072 -12.627877 0.000000 0.000000 0.000000 -25.443033 -8.517053 2.435001 -46.503874 -8.416801 -2.375086 -12.948778 -21.778795 3.265318 0.000000 0.000000 0.000000 23.258664 11.798477 4.966852 52.505464 2.336061 -4.211881 8.368991 26.386056 2.703547 0.000000 0.000000 0.000000 
0.001913 0.952824 0.006063 1.372626 -1.929284 -3.084056 -2.116196 0.271407 2.381555 -0.790516 0.034470 2.168678 -5.383217 -5.377651 10.522888 0.000000 0.000000 0.000000 -0.598535 -0.221458 2.537957 0.180499 -0.375205 -9.903205 -5.940858 -16.736132 17.283766 0.000000 0.000000 0.000000 -0.278911 -0.023660 0.592886 -2.403778 1.184406 2.893163 0.672569 1.964894 4.690530 -8.757521 6.620540 -12.842767 0.000000 0.000000 0.000000 -25.557594 -8.532053 2.402104 -46.103262 -8.548577 -2.278141 -13.622620 -21.824700 3.395927 0.000000 0.000000 0.000000 23.246424 11.711309 4.933504 52.512275 2.530885 -4.116761 8.327827 26.173494 2.672080 0.000000 0.000000 0.000000 
0.002071 0.952926 0.006270 1.371159 -1.985423 -3.319465 -2.185984 0.279653 2.450656 -0.692191 0.011902 2.530409 -5.334509 -5.322251 10.476196 0.000000 0.000000 0.000000 -0.604164 -0.215788 2.478793 0.171007 -0.354777 -9.316641 -5.949252 -16.738883 17.065541 0.000000 0.000000 0.000000 -0.460236 -0.031474 0.814440 -2.112748 1.034975 2.889663 0.553816 2.092087 4.718824 -8.883235 6.722107 -12.602028 0.000000 0.000000 0.000000 -25.667308 -8.613768 2.408382 -45.926020 -8.633872 -2.230303 -13.814091 -21.746514 3.415668 0.000000 0.000000 0.000000 23.357447 11.909529 5.094594 52.234244 2.708982 -4.033868 7.920410 26.070186 2.575607 0.000000 0.000000 0.000000 
0.002239 0.953106 0.006581 1.397647 -2.052040 -3.503084 -2.350319 0.292416 2.537897 -0.485735 -0.023043 2.768630 -5.285379 -5.247283 10.470804 0.000000 0.000000 0.000000 -0.622599 -0.196481 2.276986 0.128099 -0.327663 -8.567834 -5.965830 -16.753011 16.813811 0.000000 0.000000 0.000000 -0.675492 -0.036208 0.967103 -1.914190 0.934308 3.158958 0.615149 2.129028 4.386329 -9.046778 6.815419 -12.545705 0.000000 0.000000 0.000000 -25.936105 -8.547340 2.347528 -45.701963 -8.681206 -2.172377 -14.203703 -21.716084 3.482296 0.000000 0.000000 0.000000 23.177288 12.029609 5.139394 52.234430 2.811765 -3.955763 7.869883 26.181234 2.572693 0.000000 0.000000 0.000000 
